<svg xmlns="http://www.w3.org/2000/svg" xmlns:xlink="http://www.w3.org/1999/xlink" width="500" zoomAndPan="magnify" viewBox="0 0 375 374.999991" height="500" preserveAspectRatio="xMidYMid meet" version="1.0"><defs><g/><clipPath id="ebb8d1a234"><path d="M 68.128906 68.128906 L 306.871094 68.128906 L 306.871094 306.871094 L 68.128906 306.871094 Z M 68.128906 68.128906 " clip-rule="nonzero"/></clipPath><clipPath id="b2015d2190"><path d="M 187.5 68.128906 C 121.574219 68.128906 68.128906 121.574219 68.128906 187.5 C 68.128906 253.425781 121.574219 306.871094 187.5 306.871094 C 253.425781 306.871094 306.871094 253.425781 306.871094 187.5 C 306.871094 121.574219 253.425781 68.128906 187.5 68.128906 Z M 187.5 68.128906 " clip-rule="nonzero"/></clipPath><clipPath id="1d3085888f"><path d="M 68.128906 68.128906 L 306.628906 68.128906 L 306.628906 306.628906 L 68.128906 306.628906 Z M 68.128906 68.128906 " clip-rule="nonzero"/></clipPath><clipPath id="2e8704be09"><path d="M 187.496094 68.128906 C 121.570312 68.128906 68.128906 121.570312 68.128906 187.496094 C 68.128906 253.421875 121.570312 306.863281 187.496094 306.863281 C 253.421875 306.863281 306.863281 253.421875 306.863281 187.496094 C 306.863281 121.570312 253.421875 68.128906 187.496094 68.128906 Z M 187.496094 68.128906 " clip-rule="nonzero"/></clipPath><clipPath id="cb1ab1af46"><path d="M 101.417969 187 L 176 187 L 176 239 L 101.417969 239 Z M 101.417969 187 " clip-rule="nonzero"/></clipPath><clipPath id="1d340078cc"><path d="M 113 113.683594 L 262 113.683594 L 262 189 L 113 189 Z M 113 113.683594 " clip-rule="nonzero"/></clipPath><clipPath id="6eb1d208e9"><path d="M 131.441406 235.390625 L 243.519531 235.390625 L 243.519531 261.277344 L 131.441406 261.277344 Z M 131.441406 235.390625 " clip-rule="nonzero"/></clipPath><clipPath id="041b71bd7a"><path d="M 199.191406 187.917969 L 273.578125 187.917969 L 273.578125 239 L 199.191406 239 Z M 199.191406 187.917969 " clip-rule="nonzero"/></clipPath></defs><g clip-path="url(#ebb8d1a234)"><g clip-path="url(#b2015d2190)"><path fill="#021d42" d="M 68.128906 68.128906 L 306.871094 68.128906 L 306.871094 306.871094 L 68.128906 306.871094 Z M 68.128906 68.128906 " fill-opacity="1" fill-rule="nonzero"/></g></g><g clip-path="url(#1d3085888f)"><g clip-path="url(#2e8704be09)"><path stroke-linecap="butt" transform="matrix(0.75, 0, 0, 0.75, 68.128097, 68.128092)" fill="none" stroke-linejoin="miter" d="M 159.15734 0.00108523 C 71.256292 0.00108523 0.00107923 71.256298 0.00107923 159.157346 C 0.00107923 247.058393 71.256292 318.313606 159.15734 318.313606 C 247.058387 318.313606 318.3136 247.058393 318.3136 159.157346 C 318.3136 71.256298 247.058387 0.00108523 159.15734 0.00108523 Z M 159.15734 0.00108523 " stroke="#0d9276" stroke-width="86" stroke-opacity="1" stroke-miterlimit="4"/></g></g><g fill="#3feba2" fill-opacity="1"><g transform="translate(97.74273, 248.82205)"><g><path d="M 3.832031 5.519531 C 6.148438 8.402344 9.078125 9.445312 11.421875 7.5625 C 13.28125 6.070312 13.359375 4.128906 11.65625 1.257812 L 10.78125 -0.28125 C 10.15625 -1.390625 10.078125 -2.027344 10.574219 -2.425781 C 11.144531 -2.882812 11.964844 -2.675781 12.609375 -1.871094 C 13.304688 -1.007812 13.308594 0.0742188 12.539062 0.886719 L 15.410156 3.203125 C 17.070312 1.460938 16.796875 -1.308594 14.9375 -3.621094 C 12.855469 -6.210938 9.988281 -7.085938 7.820312 -5.34375 C 6.035156 -3.910156 5.964844 -2.019531 7.570312 0.878906 L 8.433594 2.402344 C 9.074219 3.621094 9.144531 4.308594 8.648438 4.710938 C 8.019531 5.214844 7.066406 4.898438 6.230469 3.859375 C 5.289062 2.6875 5.25 1.320312 6.191406 0.300781 L 3.34375 -2.132812 C 1.207031 -0.0273438 1.667969 2.828125 3.832031 5.519531 Z M 3.832031 5.519531 "/></g></g></g><g fill="#3feba2" fill-opacity="1"><g transform="translate(107.660966, 261.221166)"><g><path d="M 0.730469 0.644531 L 3.492188 3.078125 L 9.128906 -3.316406 L 9.15625 -3.289062 L 6.042969 5.328125 L 8.378906 7.386719 L 16.550781 3.226562 L 16.582031 3.253906 L 10.945312 9.648438 L 13.691406 12.066406 L 22.582031 1.984375 L 18.722656 -1.417969 L 10.28125 2.929688 L 10.253906 2.90625 L 13.539062 -5.988281 L 9.621094 -9.4375 Z M 0.730469 0.644531 "/></g></g></g><g fill="#3feba2" fill-opacity="1"><g transform="translate(124.317263, 275.289418)"><g><path d="M 0.832031 0.507812 L 4.339844 2.652344 L 6.40625 -0.726562 L 8.144531 -1.226562 L 7.496094 4.582031 L 11.710938 7.160156 L 12.136719 -2.394531 L 18.640625 -4.359375 L 14.429688 -6.9375 L 9 -4.929688 L 8.992188 -4.957031 L 11.351562 -8.816406 L 7.84375 -10.960938 Z M 0.832031 0.507812 "/></g></g></g><g fill="#3feba2" fill-opacity="1"><g transform="translate(138.274717, 283.658548)"><g><path d="M 0.902344 0.375 L 4.421875 1.835938 L 7.722656 -6.101562 L 7.757812 -6.089844 L 8.824219 3.667969 L 13.125 5.457031 L 18.285156 -6.957031 L 14.765625 -8.421875 L 11.457031 -0.464844 L 11.421875 -0.476562 L 10.359375 -10.25 L 6.0625 -12.039062 Z M 0.902344 0.375 "/></g></g></g><g fill="#3feba2" fill-opacity="1"><g transform="translate(154.577924, 289.968879)"><g/></g></g><g fill="#3feba2" fill-opacity="1"><g transform="translate(160.230293, 291.789849)"><g><path d="M 6.824219 1.609375 C 10.605469 2.320312 13.578125 0.03125 14.363281 -4.140625 C 15.148438 -8.328125 13.210938 -11.539062 9.429688 -12.25 C 5.628906 -12.964844 2.675781 -10.671875 1.886719 -6.484375 C 1.105469 -2.3125 3.023438 0.894531 6.824219 1.609375 Z M 7.441406 -1.675781 C 6.019531 -1.945312 5.351562 -3.578125 5.761719 -5.757812 C 6.175781 -7.953125 7.390625 -9.234375 8.8125 -8.964844 C 10.230469 -8.699219 10.882812 -7.066406 10.46875 -4.871094 C 10.058594 -2.695312 8.863281 -1.410156 7.441406 -1.675781 Z M 7.441406 -1.675781 "/></g></g></g><g fill="#3feba2" fill-opacity="1"><g transform="translate(176.415137, 294.551128)"><g><path d="M 0.394531 0.0195312 L 10.367188 0.539062 L 10.527344 -2.519531 L 7.828125 -2.660156 L 8.363281 -13.027344 L 4.632812 -13.222656 C 3.820312 -12.042969 2.59375 -11.257812 0.996094 -10.871094 L 2.085938 -7.582031 C 2.96875 -7.910156 3.707031 -8.417969 4.175781 -9.128906 L 4.195312 -9.125 L 3.871094 -2.863281 L 0.550781 -3.035156 Z M 0.394531 0.0195312 "/></g></g></g><g fill="#3feba2" fill-opacity="1"><g transform="translate(189.189386, 294.971698)"><g/></g></g><g fill="#3feba2" fill-opacity="1"><g transform="translate(195.159167, 294.963911)"><g><path d="M 7.875 -0.640625 C 11.851562 -1.207031 14.292969 -3.921875 14.109375 -7.632812 L 10.269531 -7.542969 C 10.25 -5.683594 9.148438 -4.351562 7.4375 -4.109375 C 5.429688 -3.824219 3.949219 -5.054688 3.628906 -7.304688 C 3.308594 -9.554688 4.242188 -11.144531 6.027344 -11.398438 C 7.496094 -11.605469 8.546875 -10.75 9.0625 -9.25 L 12.613281 -10.683594 C 11.765625 -13.730469 9.015625 -15.332031 5.519531 -14.835938 C 1.261719 -14.230469 -1.058594 -11.078125 -0.441406 -6.726562 C 0.175781 -2.375 3.410156 -0.0117188 7.875 -0.640625 Z M 7.875 -0.640625 "/></g></g></g><g fill="#3feba2" fill-opacity="1"><g transform="translate(212.621726, 292.066659)"><g><path d="M 0.945312 -0.25 L 4.917969 -1.308594 L 1.460938 -14.300781 L -2.511719 -13.242188 Z M 0.945312 -0.25 "/></g></g></g><g fill="#3feba2" fill-opacity="1"><g transform="translate(220.833666, 290.051914)"><g><path d="M 7.664062 -2.582031 C 11.914062 -4.292969 13.617188 -8.054688 11.996094 -12.078125 C 10.371094 -16.117188 6.542969 -17.632812 2.292969 -15.921875 C -1.941406 -14.21875 -3.667969 -10.464844 -2.039062 -6.425781 C -0.421875 -2.402344 3.433594 -0.875 7.664062 -2.582031 Z M 6.359375 -5.820312 C 4.410156 -5.035156 2.609375 -5.886719 1.773438 -7.960938 C 0.933594 -10.050781 1.640625 -11.914062 3.589844 -12.699219 C 5.539062 -13.484375 7.339844 -12.632812 8.183594 -10.542969 C 9.015625 -8.46875 8.3125 -6.605469 6.359375 -5.820312 Z M 6.359375 -5.820312 "/></g></g></g><g fill="#3feba2" fill-opacity="1"><g transform="translate(238.237441, 282.932532)"><g><path d="M 0.824219 -0.523438 L 3.925781 -2.503906 L -0.660156 -9.691406 L -0.628906 -9.710938 L 6.789062 -4.332031 L 9.417969 -6.007812 L 7.679688 -15.011719 L 7.714844 -15.035156 L 12.296875 -7.847656 L 15.386719 -9.816406 L 8.152344 -21.148438 L 3.816406 -18.382812 L 5.660156 -9.070312 L 5.628906 -9.050781 L -2.007812 -14.664062 L -6.410156 -11.859375 Z M 0.824219 -0.523438 "/></g></g></g><g fill="#3feba2" fill-opacity="1"><g transform="translate(256.389426, 270.826327)"><g><path d="M 0.0273438 -0.0273438 L 3.160156 -2.914062 L 2.09375 -5.097656 L 5.363281 -8.113281 L 7.453125 -6.875 L 10.597656 -9.777344 L -1.953125 -16.488281 L -5.652344 -13.078125 Z M 0.691406 -7.558594 L -1.742188 -12.519531 L -1.710938 -12.546875 L 3.023438 -9.710938 Z M 0.691406 -7.558594 "/></g></g></g><g fill="#3feba2" fill-opacity="1"><g transform="translate(268.683399, 259.176883)"><g><path d="M 4.5625 -4.933594 C 6.878906 -7.816406 7.265625 -10.902344 4.921875 -12.785156 C 3.0625 -14.277344 1.152344 -13.933594 -1.285156 -11.652344 L -2.597656 -10.46875 C -3.546875 -9.617188 -4.152344 -9.402344 -4.648438 -9.804688 C -5.21875 -10.261719 -5.191406 -11.105469 -4.542969 -11.910156 C -3.851562 -12.773438 -2.792969 -13.011719 -1.835938 -12.433594 L -0.195312 -15.738281 C -2.253906 -16.984375 -4.894531 -16.121094 -6.753906 -13.808594 C -8.835938 -11.214844 -9.070312 -8.226562 -6.902344 -6.484375 C -5.117188 -5.050781 -3.257812 -5.386719 -0.773438 -7.582031 L 0.527344 -8.75 C 1.578125 -9.640625 2.238281 -9.859375 2.734375 -9.460938 C 3.363281 -8.953125 3.257812 -7.953125 2.425781 -6.914062 C 1.484375 -5.746094 0.15625 -5.414062 -1.039062 -6.109375 L -2.804688 -2.804688 C -0.289062 -1.171875 2.398438 -2.238281 4.5625 -4.933594 Z M 4.5625 -4.933594 "/></g></g></g><g clip-path="url(#cb1ab1af46)"><path fill="#59b4c3" d="M 111.628906 228.003906 C 116.972656 214.667969 122.3125 201.332031 127.65625 187.992188 C 123.898438 188.78125 120.191406 189.738281 116.546875 190.855469 C 111.503906 205.394531 106.460938 219.933594 101.417969 234.46875 C 126.5625 230.992188 152.050781 232.546875 175.730469 238.847656 C 155.335938 230.886719 133.148438 225.753906 111.628906 228.003906 " fill-opacity="1" fill-rule="nonzero"/></g><path fill="#eff396" d="M 145.242188 178.835938 C 141.9375 179.417969 138.660156 180.132812 135.425781 180.972656 C 129.46875 195.277344 123.515625 209.578125 117.5625 223.882812 C 139.039062 221.847656 160.566406 227.753906 179.34375 236.585938 C 163.882812 227.574219 145.578125 219.488281 128.167969 217.859375 L 145.242188 178.835938 " fill-opacity="1" fill-rule="nonzero"/><path fill="#59b4c3" d="M 158.453125 180.699219 L 145.550781 211.011719 C 162 217.203125 175.898438 226.632812 187.488281 237.023438 C 172.78125 227.230469 154.414062 217.867188 135.683594 215.585938 C 140.679688 203.214844 145.679688 190.84375 150.679688 178.472656 C 151.4375 176.605469 152.191406 174.734375 152.949219 172.867188 C 155.496094 173.871094 157.984375 174.957031 160.410156 176.109375 C 161.238281 176.503906 162.054688 176.902344 162.863281 177.308594 C 164.414062 178.085938 165.933594 178.890625 167.429688 179.722656 C 174.710938 183.765625 181.390625 188.410156 187.488281 193.378906 L 187.5 193.386719 C 187.78125 193.613281 188.058594 193.839844 188.335938 194.070312 C 188.050781 194.242188 187.773438 194.414062 187.488281 194.589844 C 187.214844 194.417969 186.933594 194.246094 186.652344 194.078125 L 186.648438 194.070312 C 180.308594 190.214844 173.445312 186.582031 166.277344 183.621094 C 164.621094 182.929688 162.945312 182.28125 161.257812 181.671875 C 160.328125 181.332031 159.390625 181.011719 158.453125 180.699219 " fill-opacity="1" fill-rule="nonzero"/><path fill="#74e291" d="M 261.125 189.910156 L 261.226562 190.199219 C 261.230469 190.050781 261.234375 189.898438 261.238281 189.75 C 261.144531 189.785156 261.101562 189.835938 261.125 189.910156 " fill-opacity="1" fill-rule="nonzero"/><g clip-path="url(#1d340078cc)"><path fill="#59b4c3" d="M 187.496094 113.722656 C 146.75 113.722656 113.71875 146.753906 113.71875 187.5 C 113.71875 187.871094 113.722656 188.242188 113.730469 188.609375 C 116.011719 187.980469 118.65625 187.269531 121.074219 186.648438 C 121.53125 150.351562 151.09375 121.070312 187.496094 121.070312 C 223.917969 121.070312 253.488281 150.378906 253.921875 186.695312 C 256.246094 187.3125 258.855469 188.027344 261.265625 188.703125 C 261.273438 188.300781 261.273438 187.898438 261.273438 187.5 C 261.273438 146.753906 228.242188 113.722656 187.496094 113.722656 " fill-opacity="1" fill-rule="nonzero"/></g><g clip-path="url(#6eb1d208e9)"><path fill="#59b4c3" d="M 187.496094 253.925781 C 169.980469 253.925781 154.042969 247.144531 142.175781 236.0625 C 138.636719 235.789062 135.082031 235.621094 131.515625 235.550781 C 145.042969 251.300781 165.105469 261.277344 187.496094 261.277344 C 209.890625 261.277344 229.953125 251.296875 243.484375 235.546875 C 239.914062 235.617188 236.359375 235.789062 232.820312 236.0625 C 220.953125 247.144531 205.015625 253.925781 187.496094 253.925781 " fill-opacity="1" fill-rule="nonzero"/></g><path fill="#74e291" d="M 113.753906 189.710938 C 113.757812 189.859375 113.761719 190.007812 113.769531 190.15625 L 113.847656 189.921875 C 113.882812 189.828125 113.84375 189.761719 113.753906 189.710938 " fill-opacity="1" fill-rule="nonzero"/><g clip-path="url(#041b71bd7a)"><path fill="#59b4c3" d="M 258.429688 190.847656 C 254.785156 189.730469 251.074219 188.773438 247.316406 187.988281 C 252.667969 201.324219 258.015625 214.65625 263.363281 227.992188 C 241.84375 225.75 219.65625 230.890625 199.265625 238.859375 C 222.941406 232.546875 248.429688 230.988281 273.578125 234.457031 C 268.527344 219.921875 263.480469 205.386719 258.429688 190.847656 " fill-opacity="1" fill-rule="nonzero"/></g><path fill="#eff396" d="M 257.429688 223.875 C 251.46875 209.574219 245.507812 195.269531 239.546875 180.96875 C 236.3125 180.128906 233.035156 179.417969 229.726562 178.835938 L 246.820312 217.855469 C 229.410156 219.488281 211.109375 227.582031 195.652344 236.59375 C 214.425781 227.757812 235.949219 221.84375 257.429688 223.875 " fill-opacity="1" fill-rule="nonzero"/><path fill="#59b4c3" d="M 229.433594 211.011719 L 216.515625 180.707031 C 215.582031 181.015625 214.648438 181.339844 213.722656 181.671875 C 212.035156 182.285156 210.367188 182.933594 208.710938 183.621094 C 201.539062 186.589844 194.671875 190.226562 188.328125 194.082031 C 188.046875 194.253906 187.765625 194.429688 187.488281 194.601562 C 187.207031 194.429688 186.925781 194.257812 186.640625 194.085938 L 186.652344 194.078125 C 186.929688 193.847656 187.207031 193.621094 187.488281 193.394531 L 187.5 193.386719 C 193.597656 188.414062 200.273438 183.769531 207.550781 179.722656 C 209.046875 178.890625 210.570312 178.085938 212.117188 177.308594 C 212.921875 176.902344 213.738281 176.503906 214.558594 176.113281 C 216.984375 174.957031 219.472656 173.871094 222.019531 172.871094 C 222.777344 174.738281 223.53125 176.605469 224.289062 178.476562 C 229.296875 190.84375 234.300781 203.214844 239.304688 215.582031 C 220.574219 217.871094 202.210938 227.242188 187.503906 237.035156 C 199.089844 226.640625 212.988281 217.207031 229.433594 211.011719 " fill-opacity="1" fill-rule="nonzero"/><path fill="#eff396" d="M 162.375 182.210938 C 162.410156 182.117188 162.449219 182.027344 162.484375 181.933594 C 162.425781 182.011719 162.367188 182.089844 162.3125 182.167969 C 162.332031 182.183594 162.355469 182.195312 162.375 182.210938 Z M 212.609375 182.210938 C 212.628906 182.195312 212.652344 182.183594 212.671875 182.167969 C 212.613281 182.089844 212.558594 182.011719 212.5 181.933594 C 212.535156 182.027344 212.574219 182.117188 212.609375 182.210938 Z M 187.488281 158.046875 C 175.488281 158.046875 164.96875 164.375 159.070312 173.871094 C 166.238281 166.398438 176.320312 161.746094 187.488281 161.746094 C 198.660156 161.746094 208.746094 166.398438 215.914062 173.871094 C 210.015625 164.375 199.492188 158.046875 187.488281 158.046875 " fill-opacity="1" fill-rule="nonzero"/><path fill="#eff396" d="M 186.644531 151.101562 C 185.632812 151.101562 184.8125 150.28125 184.8125 149.273438 L 184.8125 137.96875 C 184.8125 136.957031 185.632812 136.136719 186.644531 136.136719 C 187.652344 136.136719 188.472656 136.957031 188.472656 137.96875 L 188.472656 149.273438 C 188.472656 150.28125 187.652344 151.101562 186.644531 151.101562 " fill-opacity="1" fill-rule="nonzero"/><path fill="#eff396" d="M 219.082031 163.832031 C 218.613281 163.832031 218.144531 163.652344 217.789062 163.292969 C 217.074219 162.578125 217.074219 161.417969 217.789062 160.703125 L 225.78125 152.714844 C 226.496094 151.996094 227.652344 151.996094 228.371094 152.714844 C 229.085938 153.429688 229.085938 154.585938 228.371094 155.300781 L 220.378906 163.292969 C 220.019531 163.652344 219.550781 163.832031 219.082031 163.832031 " fill-opacity="1" fill-rule="nonzero"/><path fill="#eff396" d="M 154.703125 165.039062 C 154.234375 165.039062 153.765625 164.863281 153.410156 164.503906 L 145.417969 156.511719 C 144.703125 155.796875 144.703125 154.636719 145.417969 153.921875 C 146.132812 153.207031 147.292969 153.207031 148.007812 153.921875 L 156 161.914062 C 156.714844 162.628906 156.714844 163.789062 156 164.503906 C 155.640625 164.863281 155.171875 165.039062 154.703125 165.039062 " fill-opacity="1" fill-rule="nonzero"/><path fill="#eff396" d="M 203.917969 154.160156 C 203.6875 154.160156 203.453125 154.113281 203.226562 154.023438 C 202.289062 153.640625 201.84375 152.570312 202.222656 151.636719 L 204.667969 145.65625 C 205.046875 144.722656 206.117188 144.269531 207.054688 144.652344 C 207.988281 145.035156 208.4375 146.105469 208.054688 147.039062 L 205.613281 153.019531 C 205.324219 153.730469 204.640625 154.160156 203.917969 154.160156 " fill-opacity="1" fill-rule="nonzero"/><path fill="#eff396" d="M 169.082031 154.984375 C 168.367188 154.984375 167.6875 154.566406 167.394531 153.863281 L 165.011719 148.195312 C 164.621094 147.261719 165.058594 146.1875 165.992188 145.796875 C 166.921875 145.40625 167.996094 145.84375 168.386719 146.777344 L 170.769531 152.445312 C 171.160156 153.378906 170.722656 154.449219 169.789062 154.84375 C 169.558594 154.941406 169.316406 154.984375 169.082031 154.984375 " fill-opacity="1" fill-rule="nonzero"/><g fill="#3feba2" fill-opacity="1"><g transform="translate(105.423843, 139.994092)"><g><path d="M 4.375 -5.957031 C 6.449219 -9.257812 6.277344 -12.589844 3.589844 -14.277344 C 1.496094 -15.59375 -0.535156 -15.007812 -2.855469 -12.390625 L -4.34375 -10.785156 C -5.4375 -9.609375 -6.234375 -9.304688 -7.007812 -9.789062 C -7.929688 -10.367188 -8.097656 -11.582031 -7.304688 -12.84375 C -6.519531 -14.089844 -5.125 -14.546875 -3.78125 -13.925781 L -2.65625 -17.074219 C -5.097656 -18.152344 -7.863281 -16.996094 -9.554688 -14.308594 C -11.425781 -11.332031 -11.148438 -8.164062 -8.625 -6.578125 C -6.605469 -5.308594 -4.675781 -5.855469 -2.351562 -8.347656 L -0.886719 -9.917969 C 0.371094 -11.242188 1.238281 -11.578125 2.03125 -11.078125 C 3.023438 -10.457031 3.125 -9.058594 2.164062 -7.523438 C 1.085938 -5.8125 -0.71875 -5.183594 -2.367188 -5.964844 L -3.609375 -2.824219 C -0.652344 -1.367188 2.367188 -2.765625 4.375 -5.957031 Z M 4.375 -5.957031 "/></g></g></g><g fill="#3feba2" fill-opacity="1"><g transform="translate(113.884074, 126.748234)"><g><path d="M 0.78125 -0.871094 L 3.214844 -3.585938 L -0.445312 -6.871094 L -0.648438 -9.199219 L 6.632812 -7.390625 L 9.5625 -10.65625 L -1.011719 -12.847656 L -1.855469 -20.648438 L -4.816406 -17.347656 L -3.734375 -9.878906 L -3.777344 -9.859375 L -8.074219 -13.714844 L -10.507812 -11.003906 Z M 0.78125 -0.871094 "/></g></g></g><g fill="#3feba2" fill-opacity="1"><g transform="translate(124.48838, 115.034745)"><g><path d="M 0.0859375 -0.0664062 L 3.089844 -2.410156 L 2.03125 -5.367188 L 6.632812 -8.957031 L 9.242188 -7.207031 L 12.246094 -9.554688 L -1.398438 -18.148438 L -4.910156 -15.410156 Z M 0.964844 -7.804688 L -1.414062 -14.492188 L -1.378906 -14.515625 L 4.527344 -10.582031 Z M 0.964844 -7.804688 "/></g></g></g><g fill="#3feba2" fill-opacity="1"><g transform="translate(137.933068, 104.666573)"><g><path d="M 1.042969 -0.535156 L 4.089844 -2.109375 L -0.847656 -11.691406 L -0.808594 -11.710938 L 9.621094 -4.957031 L 13.429688 -6.921875 L 6.480469 -20.40625 L 3.410156 -18.824219 L 8.359375 -9.222656 L 8.320312 -9.203125 L -2.121094 -15.972656 L -5.90625 -14.023438 Z M 1.042969 -0.535156 "/></g></g></g><g fill="#3feba2" fill-opacity="1"><g transform="translate(153.952009, 96.924739)"><g><path d="M 1.105469 -0.390625 L 4.542969 -1.601562 L -0.503906 -15.910156 L -3.941406 -14.695312 Z M 1.105469 -0.390625 "/></g></g></g><g fill="#3feba2" fill-opacity="1"><g transform="translate(160.95957, 94.154576)"><g><path d="M 8.796875 -1.222656 C 13.058594 -2.078125 15.542969 -5.183594 15.210938 -9.222656 L 11.773438 -9.011719 C 11.886719 -6.601562 10.5 -4.757812 8.222656 -4.300781 C 5.464844 -3.746094 3.328125 -5.296875 2.707031 -8.28125 C 2.101562 -11.289062 3.308594 -13.507812 5.816406 -14.011719 C 7.757812 -14.402344 9.304688 -13.40625 10.085938 -11.476562 L 13.179688 -12.945312 C 11.984375 -16.203125 8.859375 -17.792969 5.203125 -17.0625 C 0.503906 -16.117188 -1.84375 -12.429688 -0.867188 -7.5625 C 0.109375 -2.695312 3.863281 -0.230469 8.796875 -1.222656 Z M 8.796875 -1.222656 "/></g></g></g><g fill="#3feba2" fill-opacity="1"><g transform="translate(179.299474, 91.00238)"><g/></g></g><g fill="#3feba2" fill-opacity="1"><g transform="translate(185.664303, 90.507318)"><g><path d="M 1.171875 0.046875 L 11.113281 0.464844 L 11.242188 -2.667969 L 4.941406 -2.929688 L 5.441406 -14.957031 L 1.800781 -15.109375 Z M 1.171875 0.046875 "/></g></g></g><g fill="#3feba2" fill-opacity="1"><g transform="translate(198.712488, 91.295274)"><g><path d="M 1.15625 0.179688 L 4.757812 0.738281 L 7.078125 -14.257812 L 3.476562 -14.8125 Z M 1.15625 0.179688 "/></g></g></g><g fill="#3feba2" fill-opacity="1"><g transform="translate(206.218246, 92.25993)"><g><path d="M 1.125 0.328125 L 8.734375 2.550781 C 12.066406 3.523438 14.378906 2.601562 15.132812 0.0234375 C 15.667969 -1.816406 15.019531 -3.316406 13.339844 -4.183594 L 13.347656 -4.203125 C 15.042969 -4.152344 16.242188 -5 16.714844 -6.617188 C 17.457031 -9.152344 16.054688 -11.117188 12.800781 -12.066406 L 5.375 -14.234375 Z M 7.113281 -7.179688 L 8.121094 -10.636719 L 11.496094 -9.652344 C 12.867188 -9.25 13.460938 -8.390625 13.148438 -7.324219 C 12.820312 -6.203125 11.859375 -5.792969 10.488281 -6.195312 Z M 5.382812 -1.246094 L 6.460938 -4.949219 L 9.9375 -3.933594 C 11.453125 -3.492188 12.113281 -2.566406 11.757812 -1.339844 C 11.421875 -0.195312 10.371094 0.210938 8.859375 -0.234375 Z M 5.382812 -1.246094 "/></g></g></g><g fill="#3feba2" fill-opacity="1"><g transform="translate(221.957705, 96.954473)"><g><path d="M 11.007812 5.949219 C 12.09375 6.492188 13.324219 6.5625 14.324219 6.226562 L 14.414062 4.339844 C 14.003906 4.542969 13.527344 4.589844 13.183594 4.417969 C 12.785156 4.214844 12.699219 3.769531 12.785156 3.3125 L 13.148438 1.492188 C 13.3125 0.59375 13.199219 -0.128906 12.636719 -0.769531 L 12.644531 -0.785156 C 14.914062 -0.269531 16.808594 -1.058594 17.707031 -2.847656 C 19.007812 -5.441406 17.808594 -8.042969 14.589844 -9.65625 L 7.847656 -13.035156 L 1.046875 0.523438 L 4.304688 2.160156 L 6.875 -2.964844 L 8.949219 -1.925781 C 9.730469 -1.53125 9.976562 -0.648438 9.804688 0.269531 L 9.402344 2.542969 C 9.144531 4.011719 9.65625 5.269531 11.007812 5.949219 Z M 7.992188 -5.195312 L 9.902344 -9.003906 L 12.96875 -7.464844 C 14.414062 -6.742188 14.964844 -5.511719 14.394531 -4.367188 C 13.8125 -3.207031 12.503906 -2.929688 11.058594 -3.65625 Z M 7.992188 -5.195312 "/></g></g></g><g fill="#3feba2" fill-opacity="1"><g transform="translate(237.142448, 104.707452)"><g><path d="M 0.0859375 0.0625 L 3.125 2.367188 L 5.707031 0.582031 L 10.359375 4.105469 L 9.339844 7.078125 L 12.382812 9.378906 L 17.175781 -6.019531 L 13.628906 -8.707031 Z M 7.792969 -1.074219 L 13.640625 -5.089844 L 13.675781 -5.066406 L 11.390625 1.652344 Z M 7.792969 -1.074219 "/></g></g></g><g fill="#3feba2" fill-opacity="1"><g transform="translate(250.607923, 115.062904)"><g><path d="M 8.140625 9.503906 C 8.957031 10.402344 10.078125 10.90625 11.132812 10.957031 L 11.894531 9.226562 C 11.4375 9.265625 10.976562 9.140625 10.71875 8.855469 C 10.417969 8.523438 10.5 8.074219 10.742188 7.679688 L 11.734375 6.113281 C 12.210938 5.335938 12.363281 4.617188 12.070312 3.820312 L 12.085938 3.804688 C 14.015625 5.101562 16.070312 5.046875 17.550781 3.699219 C 19.691406 1.746094 19.507812 -1.113281 17.085938 -3.773438 L 12.003906 -9.351562 L 0.789062 0.867188 L 3.242188 3.558594 L 7.480469 -0.300781 L 9.042969 1.417969 C 9.632812 2.0625 9.542969 2.980469 9.054688 3.769531 L 7.863281 5.75 C 7.09375 7.027344 7.121094 8.386719 8.140625 9.503906 Z M 9.324219 -1.980469 L 12.472656 -4.847656 L 14.785156 -2.3125 C 15.875 -1.117188 15.945312 0.230469 15.003906 1.089844 C 14.042969 1.964844 12.722656 1.753906 11.632812 0.558594 Z M 9.324219 -1.980469 "/></g></g></g><g fill="#3feba2" fill-opacity="1"><g transform="translate(261.969574, 127.802281)"><g><path d="M 2.894531 4.597656 L 4.832031 7.683594 L 9.359375 4.835938 L 20.453125 4.023438 L 18.378906 0.722656 L 11.113281 1.617188 L 11.089844 1.582031 L 14.941406 -4.742188 L 12.898438 -7.988281 L 7.421875 1.75 Z M 2.894531 4.597656 "/></g></g></g></svg>